<svg xmlns="http://www.w3.org/2000/svg" viewBox="0 0 640 360" width="640" height="360"
  role="img" aria-label="跑分与价格同一张图示意图">
  <title>跑分与价格同一张图</title>
  <defs>
    <linearGradient id="bg" x1="0" y1="0" x2="0.7" y2="1">
      <stop offset="0" stop-color="#1c1c1e"/>
      <stop offset="1" stop-color="#141416"/>
    </linearGradient>
    <radialGradient id="glow" cx="0.22" cy="0.12" r="0.85">
      <stop offset="0" stop-color="#ff9f0a" stop-opacity="0.20"/>
      <stop offset="1" stop-color="#ff9f0a" stop-opacity="0"/>
    </radialGradient>
  </defs>

  <rect width="640" height="360" fill="url(#bg)"/>
  <rect width="640" height="360" fill="url(#glow)"/>

  
  <rect x="40" y="44" width="560" height="196" rx="16" fill="#2c2c2e" stroke="#3a3a3c" stroke-width="1.5"/>
  <line x1="76" y1="212" x2="576" y2="212" stroke="#3a3a3c" stroke-width="2"/>
  
  <rect x="82" y="186" width="54" height="26" rx="10" fill="#40c8e0"/>
  <rect x="164" y="168" width="54" height="44" rx="10" fill="#30d158"/>
  <rect x="246" y="150" width="54" height="62" rx="10" fill="#30d158"/>
  <rect x="328" y="132" width="54" height="80" rx="10" fill="#5aa9ff"/>
  <rect x="410" y="114" width="54" height="98" rx="10" fill="#5aa9ff"/>
  <rect x="492" y="96" width="54" height="116" rx="10" fill="#ff9f0a"/>
  <path d="M109 186 L191 168 L273 150 L355 132 L437 114 L519 96" fill="none"
    stroke="#f2f2f7" stroke-width="4" stroke-linecap="round" stroke-linejoin="round" opacity="0.9"/>
  <circle cx="519" cy="96" r="9" fill="#f2f2f7"/>
  <text x="576" y="72" fill="#30d158" font-size="22" text-anchor="end" font-family="ui-sans-serif,system-ui,-apple-system,'Segoe UI',sans-serif">越靠上越划算</text>

  <text x="40" y="286" fill="#f2f2f7" font-size="36" font-weight="600"
    font-family="ui-sans-serif,system-ui,-apple-system,'Segoe UI',sans-serif">跑分与价格同一张图</text>
  <text x="40" y="318" fill="#a8a8ad" font-size="22"
    font-family="ui-sans-serif,system-ui,-apple-system,'Segoe UI',sans-serif">CPU / GPU 一键切换 · 双榜单</text>
  <text x="600" y="342" fill="#a8a8ad" font-size="15" text-anchor="end" opacity="0.65"
    font-family="ui-sans-serif,system-ui,-apple-system,'Segoe UI',sans-serif">示意图</text>
</svg>
